<svg xmlns="http://www.w3.org/2000/svg" width="16" height="16" viewBox="0 0 16 16">
    <path fill="#F36A6A" fill-rule="nonzero" d="M14.25 7.787A6.248 6.248 0 0 0 8 1.54a6.248 6.248 0 0 0-6.25 6.246A6.248 6.248 0 0 0 8 14.032a6.248 6.248 0 0 0 6.25-6.245zm1.5 0A7.748 7.748 0 0 1 8 15.532 7.748 7.748 0 0 1 .25 7.787 7.748 7.748 0 0 1 8 .04c4.28 0 7.75 3.468 7.75 7.746zm-9.694-.883L8.884 9.73a.75.75 0 0 0 1.06-1.06L7.116 5.842a.75.75 0 1 0-1.06 1.061zm2.828-1.06L6.056 8.668a.75.75 0 0 0 1.06 1.061l2.828-2.826a.75.75 0 0 0-1.06-1.06z"/>
</svg>
