<svg xmlns="http://www.w3.org/2000/svg" width="40" height="39" viewBox="0 0 40 39">
    <defs>
        <filter id="a" width="109.9%" height="107.3%" x="-5%" y="-2.8%" filterUnits="objectBoundingBox">
            <feOffset dy="4" in="SourceAlpha" result="shadowOffsetOuter1"/>
            <feGaussianBlur in="shadowOffsetOuter1" result="shadowBlurOuter1" stdDeviation="5"/>
            <feColorMatrix in="shadowBlurOuter1" result="shadowMatrixOuter1" values="0 0 0 0 0.813828656 0 0 0 0 0.813828656 0 0 0 0 0.813828656 0 0 0 0.5 0"/>
            <feMerge>
                <feMergeNode in="shadowMatrixOuter1"/>
                <feMergeNode in="SourceGraphic"/>
            </feMerge>
        </filter>
    </defs>
    <g fill="none" fill-rule="evenodd" filter="url(#a)" transform="translate(-261 -420)">
        <rect width="342" height="466" x=".5" y=".5" fill="#FFF" stroke="#DFE4EF" rx="4"/>
        <text fill="#2C3135" font-family="Monaco" font-size="10">
            <tspan x="300.998" y="440">SAVE</tspan>
        </text>
        <path fill="#50E3C2" fill-rule="nonzero" d="M288.813 435.734a7.81 7.81 0 0 0-7.813-7.807 7.81 7.81 0 0 0-7.813 7.807A7.81 7.81 0 0 0 281 443.54a7.81 7.81 0 0 0 7.813-7.806zm1.875 0c0 5.347-4.338 9.681-9.688 9.681-5.35 0-9.688-4.334-9.688-9.681 0-5.348 4.338-9.682 9.688-9.682 5.35 0 9.688 4.334 9.688 9.682zm-12.775-.664a.938.938 0 1 0-1.326 1.327l2.5 2.498c.33.33.852.367 1.225.087l5-3.747a.937.937 0 0 0-1.124-1.5l-4.35 3.26-1.925-1.925z"/>
    </g>
</svg>
